<svg width="24" height="24" viewBox="0 0 24 24" fill="none" xmlns="http://www.w3.org/2000/svg">
<path d="M14.6589 20.01L13.1389 21.53C12.5189 22.15 11.4989 22.15 10.8789 21.53L9.35893 20.01C9.09893 19.75 8.58893 19.54 8.22893 19.54H6.07893C5.19893 19.54 4.47893 18.82 4.47893 17.94V15.79C4.47893 15.43 4.26893 14.92 4.00893 14.66L2.48893 13.14C1.86893 12.52 1.86893 11.5 2.48893 10.88L4.00893 9.36003C4.26893 9.10003 4.47893 8.59003 4.47893 8.23003V6.08003C4.47893 5.20003 5.19893 4.48003 6.07893 4.48003M9.33993 3.98903L10.8599 2.46903C11.4799 1.84903 12.4999 1.84903 13.1199 2.46903L14.6399 3.98903C14.8999 4.24903 15.4099 4.45903 15.7699 4.45903H17.9199C18.7999 4.45903 19.5199 5.17903 19.5199 6.05903V8.20903C19.5199 8.56903 19.7299 9.07903 19.9899 9.33903L21.5099 10.859C22.1299 11.479 22.1299 12.499 21.5099 13.119L19.9899 14.639C19.7299 14.899 19.5199 15.409 19.5199 15.769V17.919C19.5199 18.799 18.7999 19.519 17.9199 19.519M8.99993 15L14.9999 9.00003" stroke="#5FB567" stroke-width="1.5" stroke-linecap="round" stroke-linejoin="round"/>
<path d="M14.4951 14.5H14.5041M9.49512 9.5H9.50312" stroke="#5FB567" stroke-width="2" stroke-linecap="round" stroke-linejoin="round"/>
</svg>
