<svg width="19" height="22" viewBox="0 0 19 22" fill="none" xmlns="http://www.w3.org/2000/svg">
<path d="M17.75 5.79C17.75 1.76 16.81 0.75 13.03 0.75H5.47C1.69 0.75 0.75 1.76 0.75 5.79V17.05C0.75 19.71 2.21 20.34 3.98 18.44L3.99 18.43C4.81 17.56 6.06 17.63 6.77 18.58L7.78 19.93C8.59 21 9.9 21 10.71 19.93L11.72 18.58C12.44 17.62 13.69 17.55 14.51 18.43C16.29 20.33 17.74 19.7 17.74 17.04V9.75M5.25 5.75H13.25M6.25 9.75H12.25" stroke="#272727" stroke-opacity="0.5" stroke-width="1.5" stroke-linecap="round" stroke-linejoin="round"/>
</svg>
